# xmcd
#
# Track frame offsets: 
#        150
#        16896
#        35343
#        54851
#        70732
#        87412
#        101227
#        118192
#        137676
#        153279
#        166779
#
# Disc length: 2466 seconds
#
# Revision: 0
# Processed by: cddbd v1.5.2PL0 Copyright (c) Steve Scherf et al.
# Submitted via: ExactAudioCopy v1.0b1
#
DISCID=8509a00b
DTITLE=Marcia Ramirez - Life Goes On
DYEAR=2007
DGENRE=Country
TTITLE0=Black Riviera
TTITLE1=Easier Not To
TTITLE2=Get It Right
TTITLE3=Ticket To Tulsa
TTITLE4=Give Up You
TTITLE5=White Line
TTITLE6=Love Is A Powerful Thing
TTITLE7=Red Paint Smile
TTITLE8=Almost Me Again
TTITLE9=Watching An Angel Fall
TTITLE10=Life Goes On
EXTD=
EXTT0=
EXTT1=
EXTT2=
EXTT3=
EXTT4=
EXTT5=
EXTT6=
EXTT7=
EXTT8=
EXTT9=
EXTT10=
PLAYORDER=
